shantell--light.ufo
<glyph name="three" format="2">
	<unicode hex="0033"/>
	<advance width="700"/>
	<image fileName="zero.png" xScale="2.3662938837" yScale="2.3662938837" xOffset="-2104.8248343698" yOffset="-212.644631698" color="0,0,0,0.16492"/>
	<outline>
		<contour>
			<point x="372" y="712" type="curve" smooth="yes"/>
			<point x="235.1460674157" y="712"/>
			<point x="106" y="638"/>
			<point x="106" y="600" type="curve" smooth="yes"/>
			<point x="106" y="584"/>
			<point x="116" y="573"/>
			<point x="140" y="573" type="curve" smooth="yes"/>
			<point x="176" y="573"/>
			<point x="199" y="647"/>
			<point x="372" y="647" type="curve" smooth="yes"/>
			<point x="423" y="647"/>
			<point x="479" y="634.8571428571"/>
			<point x="479" y="562" type="curve" smooth="yes"/>
			<point x="479" y="470.6524822695"/>
			<point x="383.9409730788" y="427.2398558828"/>
			<point x="281" y="401" type="curve" smooth="yes"/>
			<point x="260" y="396"/>
			<point x="251" y="382"/>
			<point x="251" y="367" type="curve" smooth="yes"/>
			<point x="251" y="346"/>
			<point x="270" y="323"/>
			<point x="303" y="323" type="curve" smooth="yes"/>
			<point x="439.0007335851" y="321.999994606"/>
			<point x="541" y="296.7142857143"/>
			<point x="541" y="208" type="curve" smooth="yes"/>
			<point x="541" y="116.0122699387"/>
			<point x="431" y="55"/>
			<point x="304" y="55" type="curve" smooth="yes"/>
			<point x="174" y="55"/>
			<point x="173" y="115"/>
			<point x="139" y="115" type="curve" smooth="yes"/>
			<point x="123" y="115"/>
			<point x="112" y="101.3448275862"/>
			<point x="112" y="82" type="curve" smooth="yes"/>
			<point x="112" y="44"/>
			<point x="183" y="-12"/>
			<point x="317" y="-12" type="curve" smooth="yes"/>
			<point x="493" y="-12"/>
			<point x="608" y="78.8695652174"/>
			<point x="608" y="208" type="curve" smooth="yes"/>
			<point x="608" y="317.5189873418"/>
			<point x="518.0013123058" y="378.000013189"/>
			<point x="319" y="376" type="curve"/>
			<point x="318" y="359" type="line"/>
			<point x="504.6152992252" y="391.1058579312"/>
			<point x="546" y="484.349726776"/>
			<point x="546" y="562" type="curve" smooth="yes"/>
			<point x="546" y="652.8823529412"/>
			<point x="490" y="712"/>
		</contour>
	</outline>
</glyph>
<glyph name="v" format="2">
	<unicode hex="0076"/>
	<advance width="538"/>
	<outline>
		<contour>
			<point x="222" y="27" type="curve" smooth="yes"/>
			<point x="240" y="1"/>
			<point x="253" y="-10"/>
			<point x="271" y="-10" type="curve" smooth="yes"/>
			<point x="291" y="-10"/>
			<point x="301" y="-1"/>
			<point x="313" y="25" type="curve" smooth="yes"/>
			<point x="391" y="196"/>
			<point x="391" y="310"/>
			<point x="494" y="431" type="curve" smooth="yes"/>
			<point x="501" y="440"/>
			<point x="507" y="450"/>
			<point x="507" y="462" type="curve" smooth="yes"/>
			<point x="507" y="477"/>
			<point x="491" y="494"/>
			<point x="473" y="494" type="curve" smooth="yes"/>
			<point x="454" y="494"/>
			<point x="447" y="486"/>
			<point x="433" y="471" type="curve" smooth="yes"/>
			<point x="343" y="365"/>
			<point x="327" y="222"/>
			<point x="253" y="64" type="curve"/>
			<point x="285" y="67" type="line"/>
			<point x="234" y="145"/>
			<point x="200" y="271"/>
			<point x="163" y="366" type="curve" smooth="yes"/>
			<point x="137" y="429"/>
			<point x="117" y="492"/>
			<point x="62" y="492" type="curve" smooth="yes"/>
			<point x="42" y="492"/>
			<point x="31" y="482"/>
			<point x="31" y="472" type="curve" smooth="yes"/>
			<point x="31" y="438"/>
			<point x="60" y="442"/>
			<point x="119" y="286" type="curve" smooth="yes"/>
			<point x="155" y="191"/>
			<point x="189" y="76"/>
		</contour>
	</outline>
	<anchor name="top" x="252" y="485"/>
	<anchor name="bottom" x="254" y="0"/>
</glyph>
<glyph name="ordfeminine" format="2">
	<unicode hex="00AA"/>
	<advance width="547"/>
	<outline>
		<contour>
			<point x="348" y="624" type="curve" smooth="yes"/>
			<point x="318" y="450"/>
			<point x="259" y="356"/>
			<point x="188" y="356" type="curve" smooth="yes"/>
			<point x="158" y="356"/>
			<point x="146" y="362"/>
			<point x="122" y="387" type="curve"/>
			<point x="163" y="334" type="line"/>
			<point x="144" y="376"/>
			<point x="141" y="397"/>
			<point x="141" y="429" type="curve" smooth="yes"/>
			<point x="143" y="531"/>
			<point x="219" y="630"/>
			<point x="332" y="647" type="curve" smooth="yes"/>
			<point x="349" y="649"/>
			<point x="357" y="658"/>
			<point x="357" y="671" type="curve" smooth="yes"/>
			<point x="357" y="695"/>
			<point x="340" y="708"/>
			<point x="317" y="708" type="curve" smooth="yes"/>
			<point x="180" y="708"/>
			<point x="74" y="562"/>
			<point x="72" y="431" type="curve" smooth="yes"/>
			<point x="71" y="347"/>
			<point x="117" y="292"/>
			<point x="190" y="292" type="curve" smooth="yes"/>
			<point x="272" y="292"/>
			<point x="369" y="371"/>
			<point x="399" y="590" type="curve"/>
			<point x="372" y="590" type="line"/>
			<point x="378" y="431"/>
			<point x="410" y="370"/>
			<point x="453" y="312" type="curve" smooth="yes"/>
			<point x="461" y="300"/>
			<point x="469" y="294"/>
			<point x="485" y="294" type="curve" smooth="yes"/>
			<point x="510" y="294"/>
			<point x="524" y="332"/>
			<point x="507" y="353" type="curve" smooth="yes"/>
			<point x="449" y="430"/>
			<point x="438" y="496"/>
			<point x="426" y="601" type="curve" smooth="yes"/>
			<point x="423" y="634"/>
			<point x="404" y="656"/>
			<point x="380" y="656" type="curve" smooth="yes"/>
			<point x="362" y="656"/>
			<point x="352" y="644"/>
		</contour>
	</outline>
</glyph>
<glyph name="guillemetleft" format="2">
	<unicode hex="00AB"/>
	<advance width="618"/>
	<outline>
		<contour>
			<point x="262" y="387" type="curve" smooth="yes"/>
			<point x="280" y="398"/>
			<point x="286" y="409"/>
			<point x="286" y="422" type="curve" smooth="yes"/>
			<point x="286" y="441"/>
			<point x="274" y="458"/>
			<point x="254" y="458" type="curve" smooth="yes"/>
			<point x="248" y="458"/>
			<point x="242" y="457"/>
			<point x="223" y="445" type="curve" smooth="yes"/>
			<point x="175.5952730566" y="416.3782780719"/>
			<point x="89.5045647454" y="337.1498129454"/>
			<point x="52" y="280" type="curve" smooth="yes"/>
			<point x="37" y="257"/>
			<point x="37" y="243"/>
			<point x="49" y="211" type="curve" smooth="yes"/>
			<point x="76.4905338724" y="137.0599433776"/>
			<point x="172.2680831108" y="61.2362726069"/>
			<point x="232" y="29" type="curve" smooth="yes"/>
			<point x="248" y="21"/>
			<point x="254" y="20"/>
			<point x="264" y="20" type="curve" smooth="yes"/>
			<point x="279" y="20"/>
			<point x="298" y="30"/>
			<point x="298" y="57" type="curve" smooth="yes"/>
			<point x="298" y="73"/>
			<point x="291" y="82"/>
			<point x="277" y="88" type="curve" smooth="yes"/>
			<point x="211.668343145" y="118.298739411"/>
			<point x="125.6564428308" y="188.567375932"/>
			<point x="98" y="262" type="curve"/>
			<point x="92" y="219" type="line"/>
			<point x="139.3791830065" y="293.1975884819"/>
			<point x="211.9113336436" y="356.5890239979"/>
		</contour>
		<contour>
			<point x="532" y="407" type="curve" smooth="yes"/>
			<point x="550" y="418"/>
			<point x="556" y="429"/>
			<point x="556" y="442" type="curve" smooth="yes"/>
			<point x="556" y="461"/>
			<point x="544" y="478"/>
			<point x="524" y="478" type="curve" smooth="yes"/>
			<point x="518" y="478"/>
			<point x="512" y="477"/>
			<point x="493" y="465" type="curve" smooth="yes"/>
			<point x="440" y="433"/>
			<point x="344" y="344"/>
			<point x="302" y="280" type="curve" smooth="yes"/>
			<point x="287" y="257"/>
			<point x="287" y="243"/>
			<point x="299" y="211" type="curve" smooth="yes"/>
			<point x="325.4003605787" y="139.9921336159"/>
			<point x="429.9965886406" y="64.6308930961"/>
			<point x="510" y="35" type="curve" smooth="yes"/>
			<point x="529" y="28"/>
			<point x="534" y="27"/>
			<point x="544" y="27" type="curve" smooth="yes"/>
			<point x="558" y="27"/>
			<point x="578" y="41"/>
			<point x="578" y="67" type="curve" smooth="yes"/>
			<point x="578" y="80"/>
			<point x="570" y="91"/>
			<point x="553" y="96" type="curve" smooth="yes"/>
			<point x="468.7732770174" y="121.7634682064"/>
			<point x="376.2897612219" y="193.2896077479"/>
			<point x="350" y="264" type="curve"/>
			<point x="342" y="219" type="line"/>
			<point x="395" y="302"/>
			<point x="476" y="373"/>
		</contour>
	</outline>
</glyph>
<glyph name="mu.math" format="2">
	<unicode hex="00B5"/>
	<advance width="700"/>
	<outline>
		<contour>
			<point x="167" y="437" type="curve" smooth="yes"/>
			<point x="167" y="473.5291975003"/>
			<point x="151" y="496"/>
			<point x="127" y="496" type="curve" smooth="yes"/>
			<point x="93" y="496"/>
			<point x="65" y="446"/>
			<point x="65" y="323" type="curve" smooth="yes"/>
			<point x="65" y="250"/>
			<point x="75" y="204"/>
			<point x="93" y="160" type="curve"/>
			<point x="90" y="54"/>
			<point x="88" y="-64"/>
			<point x="88" y="-179" type="curve" smooth="yes"/>
			<point x="88" y="-250"/>
			<point x="105" y="-261"/>
			<point x="121" y="-261" type="curve" smooth="yes"/>
			<point x="134" y="-261"/>
			<point x="152" y="-251"/>
			<point x="152" y="-216" type="curve" smooth="yes"/>
			<point x="152" y="-159"/>
			<point x="156" y="-58"/>
			<point x="159" y="57" type="curve"/>
			<point x="198" y="17"/>
			<point x="246" y="-10"/>
			<point x="303" y="-10" type="curve" smooth="yes"/>
			<point x="389" y="-10"/>
			<point x="462" y="45"/>
			<point x="491" y="139" type="curve"/>
			<point x="509" y="85"/>
			<point x="534" y="49"/>
			<point x="563" y="15" type="curve" smooth="yes"/>
			<point x="574" y="2"/>
			<point x="584" y="-7"/>
			<point x="600" y="-7" type="curve" smooth="yes"/>
			<point x="629" y="-7"/>
			<point x="637" y="28"/>
			<point x="619" y="51" type="curve" smooth="yes"/>
			<point x="554" y="136"/>
			<point x="517" y="224"/>
			<point x="517" y="423" type="curve" smooth="yes"/>
			<point x="517" y="466"/>
			<point x="494" y="494"/>
			<point x="466" y="494" type="curve" smooth="yes"/>
			<point x="448" y="494"/>
			<point x="443" y="483"/>
			<point x="443" y="466" type="curve" smooth="yes"/>
			<point x="443" y="411"/>
			<point x="446" y="386"/>
			<point x="446" y="299" type="curve" smooth="yes"/>
			<point x="446" y="132"/>
			<point x="387" y="55"/>
			<point x="291" y="55" type="curve" smooth="yes"/>
			<point x="244" y="55"/>
			<point x="194" y="105"/>
			<point x="163" y="169" type="curve"/>
			<point x="165" y="259"/>
			<point x="167" y="353"/>
		</contour>
	</outline>
</glyph>
<glyph name="Thorn" format="2">
	<unicode hex="00DE"/>
	<advance width="575"/>
	<outline>
		<contour>
			<point x="135" y="-11" type="curve" smooth="yes"/>
			<point x="151" y="-11"/>
			<point x="161" y="0"/>
			<point x="161" y="19" type="curve" smooth="yes"/>
			<point x="161" y="73"/>
			<point x="149" y="69"/>
			<point x="149" y="225" type="curve" smooth="yes"/>
			<point x="149" y="337.8899082569"/>
			<point x="169" y="480.3211009174"/>
			<point x="169" y="570" type="curve" smooth="yes"/>
			<point x="169" y="627.5949367089"/>
			<point x="163.5769230769" y="710"/>
			<point x="122" y="710" type="curve" smooth="yes"/>
			<point x="107" y="710"/>
			<point x="95" y="700"/>
			<point x="95" y="676" type="curve" smooth="yes"/>
			<point x="95" y="642.6612903226"/>
			<point x="102" y="626.4193548387"/>
			<point x="102" y="570" type="curve" smooth="yes"/>
			<point x="102" y="498.6465753425"/>
			<point x="83" y="353.8410958904"/>
			<point x="83" y="187" type="curve" smooth="yes"/>
			<point x="83" y="41"/>
			<point x="96" y="-11"/>
		</contour>
		<contour>
			<point x="186" y="469" type="curve" smooth="yes"/>
			<point x="207.4915353412" y="505.8426320135"/>
			<point x="250.2678571429" y="523"/>
			<point x="308" y="523" type="curve" smooth="yes"/>
			<point x="385.8125" y="523"/>
			<point x="458" y="476"/>
			<point x="458" y="380" type="curve" smooth="yes"/>
			<point x="458" y="289"/>
			<point x="377" y="208"/>
			<point x="256" y="208" type="curve" smooth="yes"/>
			<point x="190.9795918367" y="208"/>
			<point x="177.7551020408" y="236"/>
			<point x="148" y="236" type="curve" smooth="yes"/>
			<point x="137" y="236"/>
			<point x="129" y="228"/>
			<point x="129" y="213" type="curve" smooth="yes"/>
			<point x="129" y="176.8333333333"/>
			<point x="183.1666666667" y="143"/>
			<point x="259" y="143" type="curve" smooth="yes"/>
			<point x="416" y="143"/>
			<point x="525" y="260"/>
			<point x="525" y="380" type="curve" smooth="yes"/>
			<point x="525" y="512"/>
			<point x="427.5132743363" y="588"/>
			<point x="309" y="588" type="curve" smooth="yes"/>
			<point x="223.0909090909" y="588"/>
			<point x="165.4632293582" y="556.8218585388"/>
			<point x="134" y="501" type="curve" smooth="yes"/>
			<point x="121" y="479"/>
			<point x="133" y="453"/>
			<point x="153" y="453" type="curve" smooth="yes"/>
			<point x="167" y="453"/>
			<point x="179" y="458"/>
		</contour>
	</outline>
</glyph>
<glyph name="Hbar" format="2">
	<unicode hex="0126"/>
	<advance width="736"/>
	<outline>
		<contour>
			<point x="116" y="500" type="curve" smooth="yes"/>
			<point x="188.6302521008" y="500"/>
			<point x="305.7058823529" y="510"/>
			<point x="632" y="510" type="curve" smooth="yes"/>
			<point x="664" y="510"/>
			<point x="683" y="521"/>
			<point x="683" y="539" type="curve" smooth="yes"/>
			<point x="683" y="552"/>
			<point x="661" y="573"/>
			<point x="599" y="573" type="curve" smooth="yes"/>
			<point x="426.582278481" y="573"/>
			<point x="263.875069514" y="569.8409133039"/>
			<point x="85" y="559" type="curve" smooth="yes"/>
			<point x="60" y="557"/>
			<point x="53" y="541"/>
			<point x="53" y="530" type="curve" smooth="yes"/>
			<point x="53" y="515"/>
			<point x="75" y="500"/>
		</contour>
		<component base="H"/>
	</outline>
</glyph>
<glyph name="kra" format="2">
	<unicode hex="0138"/>
	<advance width="548"/>
	<outline>
		<contour>
			<point x="471" y="-7" type="curve" smooth="yes"/>
			<point x="491" y="-7"/>
			<point x="501" y="3"/>
			<point x="501" y="19" type="curve" smooth="yes"/>
			<point x="501" y="36"/>
			<point x="491" y="50"/>
			<point x="438" y="68" type="curve" smooth="yes"/>
			<point x="305" y="111"/>
			<point x="239" y="195"/>
			<point x="239" y="229" type="curve" smooth="yes"/>
			<point x="239" y="276"/>
			<point x="346" y="384"/>
			<point x="444" y="424" type="curve" smooth="yes"/>
			<point x="471" y="435"/>
			<point x="485" y="447"/>
			<point x="485" y="468" type="curve" smooth="yes"/>
			<point x="485" y="486"/>
			<point x="473" y="495"/>
			<point x="451" y="495" type="curve" smooth="yes"/>
			<point x="374" y="495"/>
			<point x="172" y="330"/>
			<point x="172" y="229" type="curve" smooth="yes"/>
			<point x="172" y="118"/>
			<point x="373" y="-7"/>
		</contour>
		<contour>
			<point x="140" y="494" type="curve" smooth="yes"/>
			<point x="123.303030303" y="494"/>
			<point x="113.9907533771" y="483.9445202628"/>
			<point x="111" y="466" type="curve" smooth="yes"/>
			<point x="104" y="421"/>
			<point x="103" y="360"/>
			<point x="89" y="276" type="curve" smooth="yes"/>
			<point x="78" y="213"/>
			<point x="75" y="147.75"/>
			<point x="75" y="117" type="curve" smooth="yes"/>
			<point x="75" y="15"/>
			<point x="100" y="-10"/>
			<point x="124" y="-10" type="curve" smooth="yes"/>
			<point x="140" y="-10"/>
			<point x="149" y="1"/>
			<point x="149" y="25" type="curve" smooth="yes"/>
			<point x="149" y="58"/>
			<point x="144" y="87"/>
			<point x="144" y="129" type="curve" smooth="yes"/>
			<point x="144" y="174.4988969964"/>
			<point x="146" y="204"/>
			<point x="158" y="284" type="curve" smooth="yes"/>
			<point x="182.1739436302" y="444.1523765502"/>
			<point x="180.3928571429" y="494"/>
		</contour>
	</outline>
</glyph>
<glyph name="Lslash" format="2">
	<unicode hex="0141"/>
	<advance width="556"/>
	<outline>
		<contour>
			<point x="71" y="248" type="curve" smooth="yes"/>
			<point x="111" y="275"/>
			<point x="161" y="310"/>
			<point x="340" y="436" type="curve" smooth="yes"/>
			<point x="380" y="465"/>
			<point x="355" y="506"/>
			<point x="330" y="506" type="curve" smooth="yes"/>
			<point x="316" y="506"/>
			<point x="306" y="501"/>
			<point x="276" y="479" type="curve" smooth="yes"/>
			<point x="165" y="396"/>
			<point x="111" y="367"/>
			<point x="14" y="293" type="curve" smooth="yes"/>
			<point x="-20" y="266"/>
			<point x="-2" y="231"/>
			<point x="27" y="231" type="curve" smooth="yes"/>
			<point x="38" y="231"/>
			<point x="54" y="236"/>
		</contour>
		<component base="L"/>
	</outline>
	<note>
just draw this
</note>
</glyph>
<glyph name="Tbar" format="2">
	<unicode hex="0166"/>
	<advance width="647"/>
	<outline>
		<contour>
			<point x="148" y="300" type="curve" smooth="yes"/>
			<point x="201" y="300"/>
			<point x="286" y="310"/>
			<point x="524" y="310" type="curve" smooth="yes"/>
			<point x="556" y="310"/>
			<point x="575" y="321"/>
			<point x="575" y="339" type="curve" smooth="yes"/>
			<point x="575" y="352"/>
			<point x="553" y="373"/>
			<point x="491" y="373" type="curve" smooth="yes"/>
			<point x="366" y="373"/>
			<point x="248" y="367"/>
			<point x="117" y="359" type="curve" smooth="yes"/>
			<point x="92" y="357"/>
			<point x="85" y="341"/>
			<point x="85" y="330" type="curve" smooth="yes"/>
			<point x="85" y="315"/>
			<point x="107" y="300"/>
		</contour>
		<component base="T"/>
	</outline>
</glyph>
<glyph name="ohorn" format="2">
	<unicode hex="01A1"/>
	<advance width="605"/>
	<outline>
		<contour>
			<point x="409" y="472" type="curve" smooth="yes"/>
			<point x="390.7714285714" y="472"/>
			<point x="380" y="462"/>
			<point x="380" y="452" type="curve" smooth="yes"/>
			<point x="380" y="432"/>
			<point x="397.8285714286" y="414"/>
			<point x="432" y="414" type="curve" smooth="yes"/>
			<point x="531" y="414"/>
			<point x="582" y="457"/>
			<point x="582" y="523" type="curve" smooth="yes"/>
			<point x="582" y="590"/>
			<point x="553" y="628"/>
			<point x="522" y="628" type="curve" smooth="yes"/>
			<point x="504" y="628"/>
			<point x="494" y="616"/>
			<point x="494" y="598" type="curve" smooth="yes"/>
			<point x="494" y="573"/>
			<point x="517" y="559"/>
			<point x="517" y="528" type="curve" smooth="yes"/>
			<point x="517" y="493.3818181818"/>
			<point x="481" y="472"/>
		</contour>
		<component base="o"/>
	</outline>
	<anchor name="top" x="321" y="485"/>
	<anchor name="bottom" x="310" y="0"/>
</glyph>
<glyph name="brevecomb" format="2">
	<unicode hex="0306"/>
	<outline>
		<contour>
			<point x="0" y="636" type="curve" smooth="yes"/>
			<point x="-49.3981481481" y="636"/>
			<point x="-88" y="657"/>
			<point x="-98" y="706" type="curve" smooth="yes"/>
			<point x="-108" y="753"/>
			<point x="-118" y="764"/>
			<point x="-139" y="764" type="curve" smooth="yes"/>
			<point x="-162" y="764"/>
			<point x="-174" y="751"/>
			<point x="-174" y="711" type="curve" smooth="yes"/>
			<point x="-174" y="638.3417721519"/>
			<point x="-114.7663043478" y="571"/>
			<point x="-1" y="571" type="curve" smooth="yes"/>
			<point x="116.9333333333" y="571"/>
			<point x="173" y="642.8988764045"/>
			<point x="173" y="729" type="curve" smooth="yes"/>
			<point x="173" y="757"/>
			<point x="163" y="769"/>
			<point x="144" y="769" type="curve" smooth="yes"/>
			<point x="124" y="769"/>
			<point x="115" y="757"/>
			<point x="104" y="707" type="curve" smooth="yes"/>
			<point x="91" y="655"/>
			<point x="51.9724770642" y="636"/>
		</contour>
	</outline>
	<anchor name="_top" x="0" y="485"/>
	<anchor name="top" x="0" y="703"/>
</glyph>
<glyph name="Emcyr" format="2">
	<unicode hex="041C"/>
	<advance width="978"/>
	<outline>
		<contour>
			<point x="929" y="2"/>
			<point x="918" y="-9"/>
			<point x="903" y="-9" type="curve" smooth="yes"/>
			<point x="883" y="-9"/>
			<point x="864" y="8"/>
			<point x="852" y="40" type="curve" smooth="yes"/>
			<point x="823" y="116"/>
			<point x="756" y="406"/>
			<point x="717" y="647" type="curve"/>
			<point x="747" y="647" type="line"/>
			<point x="735" y="622"/>
			<point x="564" y="177"/>
			<point x="534" y="114" type="curve" smooth="yes"/>
			<point x="518" y="81"/>
			<point x="493" y="60"/>
			<point x="472" y="60" type="curve" smooth="yes"/>
			<point x="453" y="60"/>
			<point x="442" y="77"/>
			<point x="426" y="121" type="curve" smooth="yes"/>
			<point x="386" y="232"/>
			<point x="332" y="471"/>
			<point x="301" y="647" type="curve"/>
			<point x="317" y="640" type="line"/>
			<point x="265" y="569"/>
			<point x="203" y="423"/>
			<point x="175" y="326" type="curve" smooth="yes"/>
			<point x="139" y="198"/>
			<point x="131" y="75"/>
			<point x="128" y="38" type="curve" smooth="yes"/>
			<point x="126" y="11"/>
			<point x="119" y="-7"/>
			<point x="99" y="-7" type="curve" smooth="yes"/>
			<point x="82" y="-7"/>
			<point x="64" y="15"/>
			<point x="64" y="44" type="curve" smooth="yes"/>
			<point x="64" y="82"/>
			<point x="72" y="210"/>
			<point x="112" y="346" type="curve" smooth="yes"/>
			<point x="156" y="500"/>
			<point x="259" y="708"/>
			<point x="310" y="708" type="curve" smooth="yes"/>
			<point x="353" y="708"/>
			<point x="370" y="658"/>
			<point x="378" y="613" type="curve" smooth="yes"/>
			<point x="404" y="462"/>
			<point x="454" y="243"/>
			<point x="500" y="108" type="curve"/>
			<point x="474" y="129" type="line"/>
			<point x="544" y="289"/>
			<point x="657" y="614"/>
			<point x="684" y="664" type="curve" smooth="yes"/>
			<point x="697" y="688"/>
			<point x="712" y="703"/>
			<point x="730" y="703" type="curve" smooth="yes"/>
			<point x="757" y="703"/>
			<point x="780" y="675"/>
			<point x="793" y="625" type="curve" smooth="yes"/>
			<point x="800" y="600"/>
			<point x="826" y="444"/>
			<point x="855" y="304" type="curve" smooth="yes"/>
			<point x="897" y="100"/>
			<point x="929" y="37"/>
			<point x="929" y="20" type="curve" smooth="yes"/>
		</contour>
	</outline>
</glyph>
<glyph name="Checyr" format="2">
	<unicode hex="0427"/>
	<advance width="608"/>
	<outline>
		<contour>
			<point x="149" y="642" type="curve" smooth="yes"/>
			<point x="149" y="683"/>
			<point x="128" y="712"/>
			<point x="107" y="712" type="curve" smooth="yes"/>
			<point x="83" y="712"/>
			<point x="79" y="669"/>
			<point x="79" y="631" type="curve" smooth="yes"/>
			<point x="79" y="567"/>
			<point x="69" y="498"/>
			<point x="69" y="435" type="curve" smooth="yes"/>
			<point x="69" y="344"/>
			<point x="97" y="252"/>
			<point x="203" y="252" type="curve" smooth="yes"/>
			<point x="285" y="252"/>
			<point x="382" y="312"/>
			<point x="457" y="447" type="curve"/>
			<point x="438" y="522" type="line"/>
			<point x="422" y="452"/>
			<point x="412" y="325"/>
			<point x="412" y="229" type="curve" smooth="yes"/>
			<point x="412" y="173"/>
			<point x="418" y="95"/>
			<point x="430" y="46" type="curve" smooth="yes"/>
			<point x="440" y="7"/>
			<point x="458" y="-12"/>
			<point x="480" y="-12" type="curve" smooth="yes"/>
			<point x="493" y="-12"/>
			<point x="499" y="-5"/>
			<point x="499" y="15" type="curve" smooth="yes"/>
			<point x="499" y="51"/>
			<point x="481" y="118"/>
			<point x="481" y="238" type="curve" smooth="yes"/>
			<point x="481" y="483"/>
			<point x="529" y="594"/>
			<point x="529" y="637" type="curve" smooth="yes"/>
			<point x="529" y="671"/>
			<point x="519" y="706"/>
			<point x="492" y="706" type="curve" smooth="yes"/>
			<point x="466" y="706"/>
			<point x="456" y="625"/>
			<point x="432" y="549" type="curve" smooth="yes"/>
			<point x="398" y="449"/>
			<point x="311" y="321"/>
			<point x="207" y="321" type="curve" smooth="yes"/>
			<point x="150" y="321"/>
			<point x="136" y="384"/>
			<point x="136" y="438" type="curve" smooth="yes"/>
			<point x="136" y="511"/>
			<point x="149" y="596"/>
		</contour>
	</outline>
	<anchor name="top" x="291" y="700"/>
</glyph>
<glyph name="Hardcyr" format="2">
	<unicode hex="042A"/>
	<advance width="709"/>
	<outline>
		<contour>
			<point x="191" y="706" type="curve" smooth="yes"/>
			<point x="120" y="706"/>
			<point x="1" y="688"/>
			<point x="1" y="664" type="curve" smooth="yes"/>
			<point x="1" y="643"/>
			<point x="16" y="627"/>
			<point x="45" y="627" type="curve" smooth="yes"/>
			<point x="88" y="627"/>
			<point x="159" y="651"/>
			<point x="227" y="640" type="curve"/>
			<point x="209" y="651" type="line"/>
			<point x="214" y="588"/>
			<point x="166" y="298"/>
			<point x="166" y="189" type="curve" smooth="yes"/>
			<point x="166" y="90"/>
			<point x="188" y="-9"/>
			<point x="322" y="-9" type="curve" smooth="yes"/>
			<point x="492" y="-9"/>
			<point x="637" y="166"/>
			<point x="637" y="298" type="curve" smooth="yes"/>
			<point x="637" y="368"/>
			<point x="578" y="402"/>
			<point x="456" y="402" type="curve" smooth="yes"/>
			<point x="358" y="402"/>
			<point x="265" y="382"/>
			<point x="202" y="363" type="curve"/>
			<point x="222" y="305" type="line"/>
			<point x="308" y="329"/>
			<point x="485" y="350"/>
			<point x="571" y="312" type="curve"/>
			<point x="559" y="342" type="line"/>
			<point x="561" y="330"/>
			<point x="562" y="319"/>
			<point x="562" y="302" type="curve" smooth="yes"/>
			<point x="562" y="166"/>
			<point x="445" y="60"/>
			<point x="328" y="60" type="curve" smooth="yes"/>
			<point x="265" y="60"/>
			<point x="237" y="106"/>
			<point x="237" y="181" type="curve" smooth="yes"/>
			<point x="237" y="289"/>
			<point x="281" y="585"/>
			<point x="281" y="632" type="curve" smooth="yes"/>
			<point x="281" y="691"/>
			<point x="255" y="706"/>
		</contour>
	</outline>
</glyph>
<glyph name="Softcyr" format="2">
	<unicode hex="042C"/>
	<advance width="645"/>
	<outline>
		<contour>
			<point x="580" y="169"/>
			<point x="435" y="-10"/>
			<point x="287" y="-10" type="curve" smooth="yes"/>
			<point x="141" y="-10"/>
			<point x="105" y="104"/>
			<point x="105" y="224" type="curve" smooth="yes"/>
			<point x="105" y="324"/>
			<point x="124" y="469"/>
			<point x="124" y="546" type="curve" smooth="yes"/>
			<point x="124" y="587"/>
			<point x="120" y="627"/>
			<point x="120" y="657" type="curve" smooth="yes"/>
			<point x="120" y="687"/>
			<point x="127" y="709"/>
			<point x="153" y="709" type="curve" smooth="yes"/>
			<point x="184" y="709"/>
			<point x="197" y="664"/>
			<point x="197" y="600" type="curve" smooth="yes"/>
			<point x="197" y="499"/>
			<point x="173" y="333"/>
			<point x="173" y="228" type="curve" smooth="yes"/>
			<point x="173" y="118"/>
			<point x="208" y="59"/>
			<point x="288" y="59" type="curve" smooth="yes"/>
			<point x="394" y="59"/>
			<point x="504" y="194"/>
			<point x="504" y="290" type="curve" smooth="yes"/>
			<point x="504" y="345"/>
			<point x="474" y="369"/>
			<point x="404" y="369" type="curve" smooth="yes"/>
			<point x="346" y="369"/>
			<point x="282" y="356"/>
			<point x="159" y="295" type="curve"/>
			<point x="136" y="351" type="line"/>
			<point x="232" y="408"/>
			<point x="320" y="439"/>
			<point x="416" y="439" type="curve" smooth="yes"/>
			<point x="508" y="439"/>
			<point x="580" y="396"/>
			<point x="580" y="300" type="curve" smooth="yes"/>
		</contour>
	</outline>
</glyph>
<glyph name="zhecyr" format="2">
	<unicode hex="0436"/>
	<advance width="706"/>
	<outline>
		<contour>
			<point x="405" y="463" type="curve" smooth="yes"/>
			<point x="405" y="487"/>
			<point x="398" y="500"/>
			<point x="382" y="500" type="curve" smooth="yes"/>
			<point x="357" y="500"/>
			<point x="343" y="463"/>
			<point x="340" y="441" type="curve" smooth="yes"/>
			<point x="332" y="381"/>
			<point x="328" y="320"/>
			<point x="328" y="267" type="curve" smooth="yes"/>
			<point x="328" y="184"/>
			<point x="322" y="130"/>
			<point x="322" y="74" type="curve" smooth="yes"/>
			<point x="322" y="40"/>
			<point x="332" y="-12"/>
			<point x="363" y="-12" type="curve" smooth="yes"/>
			<point x="385" y="-12"/>
			<point x="389" y="11"/>
			<point x="389" y="35" type="curve" smooth="yes"/>
			<point x="389" y="74"/>
			<point x="384" y="209"/>
			<point x="384" y="239" type="curve" smooth="yes"/>
			<point x="384" y="358"/>
			<point x="405" y="435"/>
		</contour>
		<contour>
			<point x="242" y="331" type="curve" smooth="yes"/>
			<point x="136" y="416"/>
			<point x="107" y="499"/>
			<point x="75" y="499" type="curve" smooth="yes"/>
			<point x="58" y="499"/>
			<point x="50" y="487"/>
			<point x="50" y="472" type="curve" smooth="yes"/>
			<point x="50" y="439"/>
			<point x="113" y="357"/>
			<point x="166" y="315" type="curve" smooth="yes"/>
			<point x="235" y="261"/>
			<point x="286" y="236"/>
			<point x="300" y="232" type="curve"/>
			<point x="286" y="256" type="line"/>
			<point x="271" y="248"/>
			<point x="236" y="234"/>
			<point x="187" y="196" type="curve" smooth="yes"/>
			<point x="103" y="131"/>
			<point x="25" y="56"/>
			<point x="25" y="23" type="curve" smooth="yes"/>
			<point x="25" y="7"/>
			<point x="35" y="-7"/>
			<point x="51" y="-7" type="curve" smooth="yes"/>
			<point x="75" y="-7"/>
			<point x="125" y="70"/>
			<point x="221" y="146" type="curve" smooth="yes"/>
			<point x="265" y="181"/>
			<point x="307" y="205"/>
			<point x="346" y="227" type="curve"/>
			<point x="348" y="257" type="line"/>
			<point x="318" y="273"/>
			<point x="273" y="306"/>
		</contour>
		<contour>
			<point x="579" y="351" type="curve" smooth="yes"/>
			<point x="632" y="397"/>
			<point x="685" y="448"/>
			<point x="685" y="475" type="curve" smooth="yes"/>
			<point x="685" y="487"/>
			<point x="677" y="499"/>
			<point x="660" y="499" type="curve" smooth="yes"/>
			<point x="643" y="499"/>
			<point x="609" y="455"/>
			<point x="567" y="416" type="curve" smooth="yes"/>
			<point x="522" y="375"/>
			<point x="427" y="296"/>
			<point x="369" y="266" type="curve"/>
			<point x="371" y="241" type="line"/>
			<point x="405" y="198"/>
			<point x="450" y="145"/>
			<point x="512" y="92" type="curve" smooth="yes"/>
			<point x="578" y="36"/>
			<point x="637" y="-7"/>
			<point x="669" y="-7" type="curve" smooth="yes"/>
			<point x="687" y="-7"/>
			<point x="699" y="6"/>
			<point x="699" y="24" type="curve" smooth="yes"/>
			<point x="699" y="36"/>
			<point x="641" y="65"/>
			<point x="566" y="125" type="curve" smooth="yes"/>
			<point x="503" y="176"/>
			<point x="451" y="242"/>
			<point x="451" y="249" type="curve" smooth="yes"/>
			<point x="451" y="255"/>
			<point x="533" y="311"/>
		</contour>
	</outline>
	<anchor name="top" x="376" y="485"/>
</glyph>
<glyph name="checyr" format="2">
	<unicode hex="0447"/>
	<advance width="513"/>
	<outline>
		<contour>
			<point x="397" y="334" type="curve"/>
			<point x="377" y="427" type="line"/>
			<point x="364" y="335"/>
			<point x="253" y="227"/>
			<point x="157" y="227" type="curve" smooth="yes"/>
			<point x="128" y="227"/>
			<point x="119" y="275"/>
			<point x="119" y="317" type="curve" smooth="yes"/>
			<point x="119" y="400"/>
			<point x="148" y="445"/>
			<point x="148" y="474" type="curve" smooth="yes"/>
			<point x="148" y="490"/>
			<point x="140" y="499"/>
			<point x="126" y="499" type="curve" smooth="yes"/>
			<point x="81" y="499"/>
			<point x="48" y="390"/>
			<point x="48" y="304" type="curve" smooth="yes"/>
			<point x="48" y="217"/>
			<point x="88" y="154"/>
			<point x="164" y="154" type="curve" smooth="yes"/>
			<point x="254" y="154"/>
			<point x="353" y="240"/>
		</contour>
		<contour>
			<point x="445" y="429" type="curve" smooth="yes"/>
			<point x="445" y="469"/>
			<point x="424" y="497"/>
			<point x="405" y="497" type="curve" smooth="yes"/>
			<point x="385" y="497"/>
			<point x="381" y="471"/>
			<point x="377" y="431" type="curve" smooth="yes"/>
			<point x="373" y="387"/>
			<point x="357" y="284"/>
			<point x="357" y="224" type="curve" smooth="yes"/>
			<point x="357" y="161"/>
			<point x="361" y="85"/>
			<point x="373" y="47" type="curve" smooth="yes"/>
			<point x="383" y="14"/>
			<point x="396" y="-13"/>
			<point x="423" y="-13" type="curve" smooth="yes"/>
			<point x="439" y="-13"/>
			<point x="444" y="0"/>
			<point x="444" y="14" type="curve" smooth="yes"/>
			<point x="444" y="28"/>
			<point x="437" y="47"/>
			<point x="432" y="79" type="curve" smooth="yes"/>
			<point x="426" y="115"/>
			<point x="425" y="161"/>
			<point x="425" y="224" type="curve" smooth="yes"/>
			<point x="425" y="282"/>
			<point x="445" y="385"/>
		</contour>
	</outline>
	<anchor name="top" x="262" y="485"/>
</glyph>
<glyph name="hardcyr" format="2">
	<unicode hex="044A"/>
	<advance width="553"/>
	<outline>
		<contour>
			<point x="205" y="301" type="curve" smooth="yes"/>
			<point x="177" y="301"/>
			<point x="164" y="287"/>
			<point x="164" y="267" type="curve" smooth="yes"/>
			<point x="164" y="252"/>
			<point x="170" y="242"/>
			<point x="186" y="242" type="curve" smooth="yes"/>
			<point x="332" y="242"/>
			<point x="443" y="217"/>
			<point x="443" y="194" type="curve" smooth="yes"/>
			<point x="443" y="131"/>
			<point x="388" y="51"/>
			<point x="304" y="51" type="curve" smooth="yes"/>
			<point x="234" y="51"/>
			<point x="197" y="99"/>
			<point x="197" y="172" type="curve" smooth="yes"/>
			<point x="197" y="244"/>
			<point x="242" y="371"/>
			<point x="242" y="428" type="curve" smooth="yes"/>
			<point x="242" y="467"/>
			<point x="223" y="492"/>
			<point x="159" y="492" type="curve" smooth="yes"/>
			<point x="62" y="492"/>
			<point x="4" y="475"/>
			<point x="4" y="444" type="curve" smooth="yes"/>
			<point x="4" y="429"/>
			<point x="12" y="419"/>
			<point x="35" y="419" type="curve" smooth="yes"/>
			<point x="61" y="419"/>
			<point x="149" y="432"/>
			<point x="201" y="432" type="curve"/>
			<point x="174" y="450" type="line"/>
			<point x="168" y="375"/>
			<point x="127" y="243"/>
			<point x="127" y="159" type="curve" smooth="yes"/>
			<point x="127" y="60"/>
			<point x="184" y="-12"/>
			<point x="302" y="-12" type="curve" smooth="yes"/>
			<point x="423" y="-12"/>
			<point x="512" y="100"/>
			<point x="512" y="192" type="curve" smooth="yes"/>
			<point x="512" y="242"/>
			<point x="480" y="265"/>
			<point x="418" y="283" type="curve" smooth="yes"/>
			<point x="357" y="301"/>
			<point x="280" y="301"/>
		</contour>
	</outline>
</glyph>
<glyph name="yacyr" format="2">
  <advance width="530"/>
  <unicode hex="044F"/>
  <outline>
    <contour>
      <point x="306" y="196" type="curve"/>
      <point x="248" y="217" type="line"/>
      <point x="196" y="150"/>
      <point x="147" y="94"/>
      <point x="92" y="61" type="curve" smooth="yes"/>
      <point x="61" y="42"/>
      <point x="48" y="33"/>
      <point x="48" y="21" type="curve" smooth="yes"/>
      <point x="48" y="5"/>
      <point x="62" y="-10"/>
      <point x="81" y="-10" type="curve" smooth="yes"/>
      <point x="133" y="-10"/>
      <point x="236" y="91"/>
    </contour>
    <contour>
      <point x="375" y="59" type="curve" smooth="yes"/>
      <point x="387" y="18"/>
      <point x="404" y="-11"/>
      <point x="433" y="-11" type="curve" smooth="yes"/>
      <point x="445" y="-11"/>
      <point x="454" y="0"/>
      <point x="454" y="13" type="curve" smooth="yes"/>
      <point x="454" y="24"/>
      <point x="440" y="68"/>
      <point x="435" y="101" type="curve" smooth="yes"/>
      <point x="429" y="142"/>
      <point x="424" y="202"/>
      <point x="424" y="250" type="curve" smooth="yes"/>
      <point x="424" y="294"/>
      <point x="433" y="373"/>
      <point x="433" y="416" type="curve" smooth="yes"/>
      <point x="433" y="461"/>
      <point x="400" y="497"/>
      <point x="330" y="497" type="curve" smooth="yes"/>
      <point x="291" y="497"/>
      <point x="266" y="496"/>
      <point x="208" y="480" type="curve" smooth="yes"/>
      <point x="92" y="447"/>
      <point x="51" y="388"/>
      <point x="51" y="332" type="curve" smooth="yes"/>
      <point x="51" y="245"/>
      <point x="156" y="188"/>
      <point x="251" y="188" type="curve" smooth="yes"/>
      <point x="337" y="188" type="line" smooth="yes"/>
      <point x="411" y="188"/>
      <point x="472" y="201"/>
      <point x="472" y="237" type="curve" smooth="yes"/>
      <point x="472" y="256"/>
      <point x="447" y="253"/>
      <point x="415" y="253" type="curve" smooth="yes"/>
      <point x="407" y="253"/>
      <point x="358" y="245"/>
      <point x="303" y="245" type="curve" smooth="yes"/>
      <point x="163" y="245"/>
      <point x="117" y="288"/>
      <point x="117" y="338" type="curve" smooth="yes"/>
      <point x="117" y="379"/>
      <point x="177" y="413"/>
      <point x="251" y="426" type="curve" smooth="yes"/>
      <point x="280" y="431"/>
      <point x="303" y="432"/>
      <point x="325" y="432" type="curve" smooth="yes"/>
      <point x="351" y="432"/>
      <point x="365" y="424"/>
      <point x="365" y="408" type="curve" smooth="yes"/>
      <point x="365" y="375"/>
      <point x="357" y="263"/>
      <point x="357" y="212" type="curve" smooth="yes"/>
      <point x="357" y="165"/>
      <point x="366" y="90"/>
    </contour>
  </outline>
</glyph>
<glyph name="tshecyr" format="2">
	<unicode hex="045B"/>
	<advance width="711"/>
	<outline>
		<contour>
			<point x="103" y="538" type="curve" smooth="yes"/>
			<point x="138" y="538"/>
			<point x="212" y="545"/>
			<point x="370" y="545" type="curve" smooth="yes"/>
			<point x="420" y="545"/>
			<point x="449" y="569"/>
			<point x="449" y="607" type="curve" smooth="yes"/>
			<point x="449" y="646"/>
			<point x="414" y="682"/>
			<point x="337" y="682" type="curve" smooth="yes"/>
			<point x="240" y="682"/>
			<point x="136" y="680"/>
			<point x="44" y="671" type="curve" smooth="yes"/>
			<point x="-13" y="665"/>
			<point x="-30" y="648"/>
			<point x="-30" y="615" type="curve" smooth="yes"/>
			<point x="-30" y="567"/>
			<point x="18" y="538"/>
		</contour>
		<contour>
			<point x="601" y="-12" type="curve" smooth="yes"/>
			<point x="651" y="-12"/>
			<point x="681" y="10"/>
			<point x="681" y="45" type="curve" smooth="yes"/>
			<point x="681" y="61"/>
			<point x="676" y="78"/>
			<point x="668" y="93" type="curve" smooth="yes"/>
			<point x="651" y="124"/>
			<point x="631" y="156"/>
			<point x="618" y="267" type="curve" smooth="yes"/>
			<point x="599" y="434"/>
			<point x="567" y="522"/>
			<point x="447" y="522" type="curve" smooth="yes"/>
			<point x="364" y="522"/>
			<point x="277" y="443"/>
			<point x="212" y="297" type="curve"/>
			<point x="248" y="224" type="line"/>
			<point x="248" y="419"/>
			<point x="270" y="506"/>
			<point x="270" y="577" type="curve" smooth="yes"/>
			<point x="270" y="720"/>
			<point x="206" y="760"/>
			<point x="154" y="760" type="curve" smooth="yes"/>
			<point x="100" y="760"/>
			<point x="81" y="731"/>
			<point x="81" y="701" type="curve" smooth="yes"/>
			<point x="81" y="660"/>
			<point x="96" y="632"/>
			<point x="96" y="555" type="curve" smooth="yes"/>
			<point x="96" y="451"/>
			<point x="73" y="324"/>
			<point x="73" y="135" type="curve" smooth="yes"/>
			<point x="73" y="53"/>
			<point x="113" y="-6"/>
			<point x="181" y="-6" type="curve" smooth="yes"/>
			<point x="215" y="-6"/>
			<point x="233" y="3"/>
			<point x="251" y="41" type="curve" smooth="yes"/>
			<point x="326" y="210"/>
			<point x="397" y="298"/>
			<point x="434" y="311" type="curve"/>
			<point x="441" y="279"/>
			<point x="446" y="251"/>
			<point x="458" y="143" type="curve" smooth="yes"/>
			<point x="470" y="50"/>
			<point x="509" y="-12"/>
		</contour>
	</outline>
</glyph>
<glyph name="gestrokecyr" format="2">
	<unicode hex="0493"/>
	<advance width="546"/>
	<outline>
		<contour>
			<point x="102" y="162" type="curve" smooth="yes"/>
			<point x="137" y="162"/>
			<point x="240" y="167"/>
			<point x="300" y="167" type="curve" smooth="yes"/>
			<point x="350" y="167"/>
			<point x="379" y="182"/>
			<point x="379" y="220" type="curve" smooth="yes"/>
			<point x="379" y="259"/>
			<point x="344" y="304"/>
			<point x="267" y="304" type="curve" smooth="yes"/>
			<point x="227" y="304"/>
			<point x="113" y="296"/>
			<point x="68" y="293" type="curve" smooth="yes"/>
			<point x="11" y="289"/>
			<point x="3" y="272"/>
			<point x="3" y="239" type="curve" smooth="yes"/>
			<point x="3" y="191"/>
			<point x="47" y="162"/>
		</contour>
		<component base="gecyr" xOffset="16"/>
	</outline>
</glyph>
<glyph name="Palochkacyr" format="2">
	<unicode hex="04C0"/>
	<advance width="345"/>
	<outline>
		<contour>
			<point x="191" y="-12" type="curve" smooth="yes"/>
			<point x="237" y="-12"/>
			<point x="266" y="15"/>
			<point x="266" y="61" type="curve" smooth="yes"/>
			<point x="266" y="193"/>
			<point x="262" y="385"/>
			<point x="262" y="580" type="curve" smooth="yes"/>
			<point x="262" y="670"/>
			<point x="218" y="709"/>
			<point x="157" y="709" type="curve" smooth="yes"/>
			<point x="99" y="709"/>
			<point x="73" y="681"/>
			<point x="73" y="612" type="curve" smooth="yes"/>
			<point x="73" y="569"/>
			<point x="83" y="369"/>
			<point x="83" y="219" type="curve" smooth="yes"/>
			<point x="83" y="189"/>
			<point x="81" y="120"/>
			<point x="81" y="107" type="curve" smooth="yes"/>
			<point x="81" y="27"/>
			<point x="128" y="-12"/>
		</contour>
	</outline>
</glyph>
<glyph name="quotedblright" format="2">
	<unicode hex="201D"/>
	<advance width="480"/>
	<outline>
		<contour>
			<point x="210" y="812" type="curve" smooth="yes"/>
			<point x="191" y="812"/>
			<point x="180" y="804"/>
			<point x="156" y="760" type="curve" smooth="yes"/>
			<point x="111" y="678"/>
			<point x="75" y="562"/>
			<point x="75" y="484" type="curve" smooth="yes"/>
			<point x="75" y="450.347826087"/>
			<point x="88" y="430"/>
			<point x="107" y="430" type="curve" smooth="yes"/>
			<point x="126" y="430"/>
			<point x="135.4858901663" y="441.2836837817"/>
			<point x="145" y="486" type="curve" smooth="yes"/>
			<point x="157.6887039725" y="544.563249104"/>
			<point x="160.5749479364" y="609.5311663263"/>
			<point x="215" y="697" type="curve" smooth="yes"/>
			<point x="244" y="744"/>
			<point x="247" y="755"/>
			<point x="247" y="768" type="curve" smooth="yes"/>
			<point x="247" y="791"/>
			<point x="231" y="812"/>
		</contour>
		<contour>
			<point x="450" y="748" type="curve" smooth="yes"/>
			<point x="431" y="748"/>
			<point x="419" y="741"/>
			<point x="391" y="698" type="curve" smooth="yes"/>
			<point x="351" y="637"/>
			<point x="325" y="551.1553398058"/>
			<point x="325" y="494" type="curve" smooth="yes"/>
			<point x="325" y="458.4782608696"/>
			<point x="337.9523809524" y="437"/>
			<point x="357" y="437" type="curve" smooth="yes"/>
			<point x="376" y="437"/>
			<point x="385" y="449"/>
			<point x="395" y="496" type="curve" smooth="yes"/>
			<point x="404" y="537"/>
			<point x="408" y="578"/>
			<point x="448" y="642" type="curve" smooth="yes"/>
			<point x="477" y="689"/>
			<point x="480" y="700"/>
			<point x="480" y="713" type="curve" smooth="yes"/>
			<point x="480" y="729.1996904025"/>
			<point x="467.4193548387" y="748"/>
		</contour>
	</outline>
</glyph>
<glyph name="guilsinglleft" format="2">
	<unicode hex="2039"/>
	<advance width="338"/>
	<outline>
		<contour>
			<point x="262" y="387" type="curve" smooth="yes"/>
			<point x="280" y="398"/>
			<point x="286" y="409"/>
			<point x="286" y="422" type="curve" smooth="yes"/>
			<point x="286" y="441"/>
			<point x="274" y="458"/>
			<point x="254" y="458" type="curve" smooth="yes"/>
			<point x="248" y="458"/>
			<point x="242" y="457"/>
			<point x="223" y="445" type="curve" smooth="yes"/>
			<point x="175.5952730566" y="416.3782780719"/>
			<point x="89.5045647454" y="337.1498129454"/>
			<point x="52" y="280" type="curve" smooth="yes"/>
			<point x="37" y="257"/>
			<point x="37" y="243"/>
			<point x="49" y="211" type="curve" smooth="yes"/>
			<point x="76.4905338724" y="137.0599433776"/>
			<point x="172.2680831108" y="61.2362726069"/>
			<point x="232" y="29" type="curve" smooth="yes"/>
			<point x="248" y="21"/>
			<point x="254" y="20"/>
			<point x="264" y="20" type="curve" smooth="yes"/>
			<point x="279" y="20"/>
			<point x="298" y="30"/>
			<point x="298" y="57" type="curve" smooth="yes"/>
			<point x="298" y="73"/>
			<point x="291" y="82"/>
			<point x="277" y="88" type="curve" smooth="yes"/>
			<point x="211.668343145" y="118.298739411"/>
			<point x="125.6564428308" y="188.567375932"/>
			<point x="98" y="262" type="curve"/>
			<point x="92" y="219" type="line"/>
			<point x="139.3791830065" y="293.1975884819"/>
			<point x="211.9113336436" y="356.5890239979"/>
		</contour>
	</outline>
</glyph>
<glyph name="tugrik" format="2">
	<unicode hex="20AE"/>
	<advance width="665"/>
	<outline>
		<contour>
			<point x="237" y="568" type="curve" smooth="yes"/>
			<point x="225" y="426"/>
			<point x="218" y="332"/>
			<point x="218" y="260" type="curve" smooth="yes"/>
			<point x="218" y="189"/>
			<point x="225" y="139"/>
			<point x="239" y="85" type="curve" smooth="yes"/>
			<point x="262" y="10"/>
			<point x="302" y="-13"/>
			<point x="347" y="-13" type="curve" smooth="yes"/>
			<point x="398" y="-13"/>
			<point x="422" y="6"/>
			<point x="422" y="61" type="curve" smooth="yes"/>
			<point x="422" y="111"/>
			<point x="406" y="148"/>
			<point x="406" y="298" type="curve" smooth="yes"/>
			<point x="406" y="352"/>
			<point x="415" y="506"/>
			<point x="415" y="533" type="curve" smooth="yes"/>
			<point x="415" y="608"/>
			<point x="386" y="640"/>
			<point x="309" y="640" type="curve" smooth="yes"/>
			<point x="268" y="640"/>
			<point x="240" y="610"/>
		</contour>
		<contour>
			<point x="126" y="534" type="curve" smooth="yes"/>
			<point x="251" y="534"/>
			<point x="360" y="543"/>
			<point x="513" y="543" type="curve" smooth="yes"/>
			<point x="581" y="543"/>
			<point x="653" y="574"/>
			<point x="653" y="649" type="curve" smooth="yes"/>
			<point x="653" y="686"/>
			<point x="633" y="711"/>
			<point x="591" y="711" type="curve" smooth="yes"/>
			<point x="500" y="711"/>
			<point x="446" y="700"/>
			<point x="375" y="700" type="curve" smooth="yes"/>
			<point x="277" y="700"/>
			<point x="186" y="710"/>
			<point x="65" y="710" type="curve" smooth="yes"/>
			<point x="27" y="710"/>
			<point x="12" y="683"/>
			<point x="12" y="651" type="curve" smooth="yes"/>
			<point x="12" y="580"/>
			<point x="46" y="534"/>
		</contour>
		<contour>
			<point x="115" y="405" type="curve" smooth="yes"/>
			<point x="73" y="392"/>
			<point x="57" y="366"/>
			<point x="57" y="340" type="curve" smooth="yes"/>
			<point x="57" y="308"/>
			<point x="85" y="291"/>
			<point x="114" y="291" type="curve" smooth="yes"/>
			<point x="180" y="291"/>
			<point x="329" y="343"/>
			<point x="511" y="368" type="curve" smooth="yes"/>
			<point x="566" y="376"/>
			<point x="586" y="397"/>
			<point x="586" y="432" type="curve" smooth="yes"/>
			<point x="586" y="464"/>
			<point x="562" y="488"/>
			<point x="507" y="488" type="curve" smooth="yes"/>
			<point x="459" y="488"/>
			<point x="249.1176470588" y="447.3529411765"/>
		</contour>
		<contour>
			<point x="124" y="225" type="curve" smooth="yes"/>
			<point x="75" y="218"/>
			<point x="54" y="197"/>
			<point x="54" y="164" type="curve" smooth="yes"/>
			<point x="54" y="125"/>
			<point x="87" y="104"/>
			<point x="121" y="104" type="curve" smooth="yes"/>
			<point x="202" y="104"/>
			<point x="391" y="175"/>
			<point x="505" y="191" type="curve" smooth="yes"/>
			<point x="567" y="199"/>
			<point x="594" y="234"/>
			<point x="594" y="275" type="curve" smooth="yes"/>
			<point x="594" y="298"/>
			<point x="580" y="315"/>
			<point x="539" y="315" type="curve" smooth="yes"/>
			<point x="457" y="315"/>
			<point x="252" y="248"/>
		</contour>
	</outline>
</glyph>
<glyph name="ruble" format="2">
	<unicode hex="20BD"/>
	<advance width="700"/>
	<outline>
		<contour>
			<point x="216" y="47" type="curve" smooth="yes"/>
			<point x="216" y="8"/>
			<point x="230" y="-10"/>
			<point x="249" y="-10" type="curve" smooth="yes"/>
			<point x="270" y="-10"/>
			<point x="283" y="4"/>
			<point x="283" y="25" type="curve" smooth="yes"/>
			<point x="283" y="238"/>
			<point x="218" y="348"/>
			<point x="218" y="476" type="curve" smooth="yes"/>
			<point x="218" y="586.1348314607"/>
			<point x="274.6511627907" y="645"/>
			<point x="386" y="645" type="curve" smooth="yes"/>
			<point x="473.5636363636" y="645"/>
			<point x="554" y="597.0597014925"/>
			<point x="554" y="499" type="curve" smooth="yes"/>
			<point x="554" y="394.4851485149"/>
			<point x="479" y="317"/>
			<point x="341" y="317" type="curve" smooth="yes"/>
			<point x="136.7706766917" y="317"/>
			<point x="128.8007518797" y="379"/>
			<point x="76" y="379" type="curve" smooth="yes"/>
			<point x="57" y="379"/>
			<point x="46" y="369"/>
			<point x="46" y="350" type="curve" smooth="yes"/>
			<point x="46" y="307"/>
			<point x="123" y="253"/>
			<point x="338" y="253" type="curve" smooth="yes"/>
			<point x="527" y="253"/>
			<point x="623" y="370"/>
			<point x="623" y="501" type="curve" smooth="yes"/>
			<point x="623" y="634"/>
			<point x="519.8138528138" y="708"/>
			<point x="387" y="708" type="curve" smooth="yes"/>
			<point x="227.3817427386" y="708"/>
			<point x="151" y="608.2975206612"/>
			<point x="151" y="476" type="curve" smooth="yes"/>
			<point x="151" y="342"/>
			<point x="216" y="223"/>
		</contour>
		<contour>
			<point x="137" y="116" type="curve" smooth="yes"/>
			<point x="186" y="116"/>
			<point x="266" y="103"/>
			<point x="488" y="103" type="curve" smooth="yes"/>
			<point x="520" y="103"/>
			<point x="539" y="114"/>
			<point x="539" y="132" type="curve" smooth="yes"/>
			<point x="539" y="146"/>
			<point x="521" y="166"/>
			<point x="455" y="166" type="curve" smooth="yes"/>
			<point x="275" y="166"/>
			<point x="202" y="181"/>
			<point x="107" y="181" type="curve" smooth="yes"/>
			<point x="88" y="181"/>
			<point x="76" y="165"/>
			<point x="76" y="150" type="curve" smooth="yes"/>
			<point x="76" y="133"/>
			<point x="88" y="116"/>
		</contour>
	</outline>
</glyph>
<glyph name="divisionslash" format="2">
  <advance width="700"/>
  <unicode hex="2215"/>
  <outline>
    <contour>
      <point x="609" y="654" type="curve" smooth="yes"/>
      <point x="647" y="694"/>
      <point x="633" y="733"/>
      <point x="607" y="733" type="curve" smooth="yes"/>
      <point x="589" y="733"/>
      <point x="574" y="728"/>
      <point x="548" y="701" type="curve" smooth="yes"/>
      <point x="343" y="485"/>
      <point x="194" y="272"/>
      <point x="85" y="29" type="curve" smooth="yes"/>
      <point x="70" y="-4"/>
      <point x="82" y="-35"/>
      <point x="110" y="-35" type="curve" smooth="yes"/>
      <point x="128" y="-35"/>
      <point x="144" y="-29"/>
      <point x="156" y="-3" type="curve" smooth="yes"/>
      <point x="257" y="221"/>
      <point x="392" y="428"/>
    </contour>
  </outline>
</glyph>
<glyph name="infinity" format="2">
	<unicode hex="221E"/>
	<advance width="900"/>
	<outline>
		<contour>
			<point x="149" y="453" type="curve"/>
			<point x="175" y="466"/>
			<point x="199" y="473"/>
			<point x="234" y="473" type="curve" smooth="yes"/>
			<point x="314" y="473"/>
			<point x="351" y="443"/>
			<point x="422" y="338" type="curve"/>
			<point x="455" y="393" type="line"/>
			<point x="406" y="488"/>
			<point x="352" y="537"/>
			<point x="245" y="537" type="curve" smooth="yes"/>
			<point x="133" y="537"/>
			<point x="56" y="474"/>
			<point x="56" y="341" type="curve" smooth="yes"/>
			<point x="56" y="195"/>
			<point x="151" y="141"/>
			<point x="241" y="141" type="curve" smooth="yes"/>
			<point x="338" y="141"/>
			<point x="410" y="181"/>
			<point x="464" y="324" type="curve" smooth="yes"/>
			<point x="522" y="478"/>
			<point x="569" y="506"/>
			<point x="642" y="506" type="curve" smooth="yes"/>
			<point x="715" y="506"/>
			<point x="773" y="443.905027933"/>
			<point x="773" y="335" type="curve" smooth="yes"/>
			<point x="773" y="227.4264705882"/>
			<point x="732" y="181"/>
			<point x="662" y="181" type="curve" smooth="yes"/>
			<point x="589" y="181"/>
			<point x="544.2770429562" y="222.8948240816"/>
			<point x="468" y="365" type="curve"/>
			<point x="429" y="313" type="line"/>
			<point x="522.7311018836" y="139.0767331715"/>
			<point x="586.9972714441" y="117.0000682139"/>
			<point x="667" y="115" type="curve" smooth="yes"/>
			<point x="757.0005416297" y="113.9999939819"/>
			<point x="838" y="174.7142857143"/>
			<point x="838" y="335" type="curve" smooth="yes"/>
			<point x="838" y="504"/>
			<point x="734" y="568"/>
			<point x="639" y="568" type="curve" smooth="yes"/>
			<point x="531" y="568"/>
			<point x="463" y="499"/>
			<point x="418" y="373" type="curve" smooth="yes"/>
			<point x="373" y="246"/>
			<point x="324" y="203"/>
			<point x="245" y="203" type="curve" smooth="yes"/>
			<point x="170" y="203"/>
			<point x="121" y="260"/>
			<point x="121" y="340" type="curve" smooth="yes"/>
			<point x="121" y="392"/>
			<point x="132" y="426"/>
		</contour>
	</outline>
</glyph>
<glyph name="braceleft.case" format="2">
  <advance width="462"/>
  <outline>
    <contour>
      <point x="422" y="709" type="curve" smooth="yes"/>
      <point x="447" y="715"/>
      <point x="459" y="721"/>
      <point x="459" y="735" type="curve" smooth="yes"/>
      <point x="459" y="760"/>
      <point x="442" y="780"/>
      <point x="414" y="780" type="curve" smooth="yes"/>
      <point x="377" y="780"/>
      <point x="212" y="723"/>
      <point x="212" y="615" type="curve" smooth="yes"/>
      <point x="212" y="557.961038961"/>
      <point x="244" y="525.2337662338"/>
      <point x="244" y="471" type="curve" smooth="yes"/>
      <point x="244" y="425"/>
      <point x="158" y="385"/>
      <point x="78" y="360" type="curve" smooth="yes"/>
      <point x="61" y="355"/>
      <point x="53" y="347"/>
      <point x="53" y="332" type="curve" smooth="yes"/>
      <point x="53" y="310"/>
      <point x="63" y="295"/>
      <point x="83" y="292" type="curve" smooth="yes"/>
      <point x="200" y="276"/>
      <point x="279" y="250"/>
      <point x="279" y="199" type="curve" smooth="yes"/>
      <point x="279" y="142.8064516129"/>
      <point x="241" y="123.3548387097"/>
      <point x="241" y="65" type="curve" smooth="yes"/>
      <point x="241" y="-13"/>
      <point x="356" y="-80"/>
      <point x="414" y="-80" type="curve" smooth="yes"/>
      <point x="442" y="-80"/>
      <point x="459" y="-66"/>
      <point x="459" y="-46" type="curve" smooth="yes"/>
      <point x="459" y="-31"/>
      <point x="452" y="-22"/>
      <point x="425" y="-14" type="curve" smooth="yes"/>
      <point x="348" y="10"/>
      <point x="311" y="41"/>
      <point x="311" y="65" type="curve" smooth="yes"/>
      <point x="311" y="119.1666666667"/>
      <point x="349" y="135.4166666667"/>
      <point x="349" y="195" type="curve" smooth="yes"/>
      <point x="349" y="259"/>
      <point x="308" y="315"/>
      <point x="158" y="348" type="curve"/>
      <point x="157" y="324" type="line"/>
      <point x="265" y="361"/>
      <point x="313" y="413"/>
      <point x="314" y="465" type="curve" smooth="yes"/>
      <point x="314.9363199725" y="528.6697581324"/>
      <point x="282" y="560.5031847134"/>
      <point x="282" y="612" type="curve" smooth="yes"/>
      <point x="282" y="656"/>
      <point x="340" y="691"/>
    </contour>
  </outline>
</glyph>
<glyph name="jdotless" format="2">
	<advance width="241"/>
	<outline>
		<contour>
			<point x="146" y="444" type="curve" smooth="yes"/>
			<point x="138.9956274677" y="488.027484489"/>
			<point x="123.45" y="496"/>
			<point x="105" y="496" type="curve" smooth="yes"/>
			<point x="90.46875" y="496"/>
			<point x="74" y="485"/>
			<point x="74" y="457" type="curve" smooth="yes"/>
			<point x="74" y="393"/>
			<point x="122" y="260"/>
			<point x="122" y="-72" type="curve" smooth="yes"/>
			<point x="122" y="-154"/>
			<point x="97.3563218391" y="-195"/>
			<point x="55" y="-195" type="curve" smooth="yes"/>
			<point x="24" y="-195"/>
			<point x="10" y="-172"/>
			<point x="-15" y="-172" type="curve" smooth="yes"/>
			<point x="-33" y="-172"/>
			<point x="-45" y="-181.935483871"/>
			<point x="-45" y="-200" type="curve" smooth="yes"/>
			<point x="-45" y="-230.5263157895"/>
			<point x="-7" y="-260"/>
			<point x="60" y="-260" type="curve" smooth="yes"/>
			<point x="138" y="-260"/>
			<point x="189" y="-191.8181818182"/>
			<point x="189" y="-60" type="curve" smooth="yes"/>
			<point x="189" y="124.3443983402"/>
			<point x="176" y="266"/>
		</contour>
	</outline>
	<anchor name="top" x="111" y="485"/>
</glyph>
<glyph name="parenleft.case" format="2">
  <advance width="351"/>
  <outline>
    <contour>
      <point x="308" y="715" type="curve" smooth="yes"/>
      <point x="319" y="730"/>
      <point x="322" y="737"/>
      <point x="322" y="745" type="curve" smooth="yes"/>
      <point x="322" y="763"/>
      <point x="310" y="780"/>
      <point x="287" y="780" type="curve" smooth="yes"/>
      <point x="277" y="780"/>
      <point x="266" y="775"/>
      <point x="254" y="759" type="curve" smooth="yes"/>
      <point x="160" y="636"/>
      <point x="82" y="470"/>
      <point x="82" y="280" type="curve" smooth="yes"/>
      <point x="82" y="98"/>
      <point x="156" y="-21"/>
      <point x="245" y="-66" type="curve" smooth="yes"/>
      <point x="267" y="-77"/>
      <point x="276" y="-80"/>
      <point x="291" y="-80" type="curve" smooth="yes"/>
      <point x="311" y="-80"/>
      <point x="322" y="-70"/>
      <point x="322" y="-51" type="curve" smooth="yes"/>
      <point x="322" y="-35"/>
      <point x="312" y="-23"/>
      <point x="284" y="-9" type="curve" smooth="yes"/>
      <point x="204" y="31"/>
      <point x="152" y="124"/>
      <point x="152" y="280" type="curve" smooth="yes"/>
      <point x="152" y="454"/>
      <point x="223" y="605"/>
    </contour>
  </outline>
</glyph>
<glyph name="parenright.case" format="2">
  <advance width="351"/>
  <outline>
    <contour>
      <point x="49" y="-12" type="curve" smooth="yes"/>
      <point x="34" y="-25"/>
      <point x="29" y="-35"/>
      <point x="29" y="-46" type="curve" smooth="yes"/>
      <point x="29" y="-63"/>
      <point x="44" y="-80"/>
      <point x="66" y="-80" type="curve" smooth="yes"/>
      <point x="73" y="-80"/>
      <point x="81" y="-77"/>
      <point x="98" y="-62" type="curve" smooth="yes"/>
      <point x="201" y="28"/>
      <point x="269" y="163"/>
      <point x="269" y="325" type="curve" smooth="yes"/>
      <point x="269" y="547"/>
      <point x="191" y="681"/>
      <point x="103" y="756" type="curve" smooth="yes"/>
      <point x="78" y="777"/>
      <point x="71" y="780"/>
      <point x="61" y="780" type="curve" smooth="yes"/>
      <point x="47" y="780"/>
      <point x="29" y="769"/>
      <point x="29" y="747" type="curve" smooth="yes"/>
      <point x="29" y="736"/>
      <point x="34" y="724"/>
      <point x="59" y="702" type="curve" smooth="yes"/>
      <point x="137" y="636"/>
      <point x="201" y="515"/>
      <point x="201" y="325" type="curve" smooth="yes"/>
      <point x="201" y="185"/>
      <point x="138" y="62"/>
    </contour>
  </outline>
</glyph>
<glyph name="te-cy.loclSRB" format="2">
	<advance width="1004"/>
	<outline>
		<contour>
			<point x="232" y="571" type="curve" smooth="yes"/>
			<point x="325" y="571"/>
			<point x="617" y="596"/>
			<point x="852" y="596" type="curve" smooth="yes"/>
			<point x="883" y="596"/>
			<point x="901" y="617"/>
			<point x="901" y="650" type="curve" smooth="yes"/>
			<point x="901" y="691"/>
			<point x="858" y="742"/>
			<point x="739" y="742" type="curve" smooth="yes"/>
			<point x="632" y="742"/>
			<point x="309" y="713"/>
			<point x="189" y="713" type="curve" smooth="yes"/>
			<point x="128" y="713"/>
			<point x="118" y="678"/>
			<point x="118" y="651" type="curve" smooth="yes"/>
			<point x="118" y="604"/>
			<point x="159" y="571"/>
		</contour>
		<component base="sha-cy.loclBGR"/>
	</outline>
</glyph>
